<?xml version="1.0" encoding="UTF-8"?>
<svg id="Layer_1" xmlns="http://www.w3.org/2000/svg" version="1.1" viewBox="0 0 324.77 86.11">
  <!-- Generator: Adobe Illustrator 29.7.1, SVG Export Plug-In . SVG Version: 2.1.1 Build 8)  -->
  <defs>
    <style>
      .st0 {
        fill: #faa319;
      }
    </style>
  </defs>
  <polygon class="st0" points="9.65 59.57 4.42 61.64 6.29 77.63 11.42 81.64 11.42 81.64 9.65 59.57"/>
  <path class="st0" d="M13.32,81.14c-.38.1-.71.18-.98.25.27-.07.6-.15.98-.25"/>
  <path class="st0" d="M11.47,81.63h-.05s.05,0,.05,0Z"/>
  <path class="st0" d="M41.97,57.62c-.72,0-1.3.58-1.3,1.3s.58,1.3,1.3,1.3,1.3-.58,1.3-1.3-.58-1.3-1.3-1.3"/>
  <path class="st0" d="M45.99,68.31c0-.74-.6-1.34-1.34-1.34s-1.34.6-1.34,1.34.6,1.34,1.34,1.34,1.34-.6,1.34-1.34"/>
  <path class="st0" d="M42.93,71.63c.72,0,1.3-.58,1.3-1.3s-.58-1.3-1.3-1.3-1.3.58-1.3,1.3.58,1.3,1.3,1.3"/>
  <path class="st0" d="M44.37,63.14c-.74,0-1.34.6-1.34,1.34s.6,1.34,1.34,1.34c.35,0,.67-.14.91-.36-.15.21-.23.47-.23.75,0,.74.6,1.34,1.34,1.34s1.34-.6,1.34-1.34-.6-1.34-1.34-1.34c-.35,0-.67.14-.91.36.15-.21.23-.47.23-.75,0-.74-.6-1.34-1.34-1.34"/>
  <path class="st0" d="M43.55,62.75c0-.72-.58-1.3-1.3-1.3s-1.3.58-1.3,1.3.58,1.3,1.3,1.3,1.3-.58,1.3-1.3"/>
  <path class="st0" d="M45.32,60.64c0-.74-.6-1.34-1.34-1.34s-1.34.6-1.34,1.34.6,1.34,1.34,1.34,1.34-.6,1.34-1.34"/>
  <path class="st0" d="M42.64,67.89c.72,0,1.3-.58,1.3-1.3s-.58-1.3-1.3-1.3-1.3.58-1.3,1.3.58,1.3,1.3,1.3"/>
  <path class="st0" d="M40.14,59.74c-.71,0-1.29.58-1.29,1.29s.58,1.29,1.29,1.29,1.29-.58,1.29-1.29-.58-1.29-1.29-1.29"/>
  <path class="st0" d="M42.1,68.6c0-.71-.58-1.29-1.29-1.29s-1.29.58-1.29,1.29.58,1.29,1.29,1.29,1.29-.58,1.29-1.29"/>
  <path class="st0" d="M39.86,58.47c.64,0,1.17-.48,1.27-1.09-.86,0-1.7,0-2.53.01.1.61.63,1.08,1.27,1.08"/>
  <path class="st0" d="M41.81,64.76c0-.71-.58-1.29-1.29-1.29s-1.29.58-1.29,1.29.58,1.29,1.29,1.29,1.29-.58,1.29-1.29"/>
  <path class="st0" d="M38.8,68.15c.7,0,1.27-.57,1.27-1.27s-.57-1.27-1.27-1.27-1.27.57-1.27,1.27.57,1.27,1.27,1.27"/>
  <path class="st0" d="M36.86,59.2c0,.7.57,1.27,1.27,1.27s1.27-.57,1.27-1.27-.57-1.27-1.27-1.27-1.27.57-1.27,1.27"/>
  <path class="st0" d="M39.09,71.98c.7,0,1.27-.57,1.27-1.27s-.57-1.27-1.27-1.27-1.27.57-1.27,1.27.57,1.27,1.27,1.27"/>
  <path class="st0" d="M36.35,60.08c-.68,0-1.23.55-1.23,1.23s.55,1.23,1.23,1.23,1.23-.55,1.23-1.23-.55-1.23-1.23-1.23"/>
  <path class="st0" d="M37.14,63.04c0,.7.57,1.27,1.27,1.27s1.27-.57,1.27-1.27-.57-1.27-1.27-1.27-1.27.57-1.27,1.27"/>
  <path class="st0" d="M37.92,65.15c0-.68-.55-1.23-1.23-1.23s-1.23.55-1.23,1.23.55,1.23,1.23,1.23,1.23-.55,1.23-1.23"/>
  <path class="st0" d="M38.31,68.98c0-.68-.55-1.23-1.23-1.23s-1.23.55-1.23,1.23.55,1.23,1.23,1.23,1.23-.55,1.23-1.23"/>
  <path class="st0" d="M34.74,57.46h0c0,.69.55,1.24,1.23,1.24s1.23-.55,1.23-1.23v-.06c-.84.01-1.66.03-2.47.05"/>
  <path class="st0" d="M36.13,67.26c0-.67-.55-1.22-1.22-1.22s-1.22.55-1.22,1.22.55,1.22,1.22,1.22,1.22-.55,1.22-1.22"/>
  <path class="st0" d="M36.47,71c0-.67-.55-1.22-1.22-1.22s-1.22.55-1.22,1.22.55,1.22,1.22,1.22c.55,0,1.22-.56,1.22-1.22"/>
  <path class="st0" d="M33.02,59.59c0,.67.55,1.22,1.22,1.22s1.22-.55,1.22-1.22-.55-1.22-1.22-1.22-1.22.55-1.22,1.22"/>
  <path class="st0" d="M33.53,74.33c.67,0,1.22-.55,1.22-1.22s-.55-1.22-1.22-1.22-1.22.55-1.22,1.22.55,1.22,1.22,1.22"/>
  <path class="st0" d="M33.31,63.42c0,.67.55,1.22,1.22,1.22s1.22-.55,1.22-1.22-.55-1.22-1.22-1.22-1.22.55-1.22,1.22"/>
  <path class="st0" d="M32.76,71.38c0-.69-.56-1.24-1.24-1.24s-1.24.56-1.24,1.24.56,1.24,1.24,1.24,1.24-.56,1.24-1.24"/>
  <path class="st0" d="M33.24,70.52c.69,0,1.24-.56,1.24-1.24s-.56-1.25-1.24-1.25-1.24.56-1.24,1.25.56,1.24,1.24,1.24"/>
  <path class="st0" d="M30.97,57.59c-.02.09-.03.18-.03.27,0,.69.56,1.24,1.25,1.24s1.24-.56,1.24-1.24c0-.12-.02-.24-.06-.35-.82.03-1.62.05-2.4.09"/>
  <path class="st0" d="M32.86,66.68c.69,0,1.24-.56,1.24-1.24s-.56-1.24-1.24-1.24-1.24.56-1.24,1.24.56,1.24,1.24,1.24"/>
  <path class="st0" d="M32.57,60.35c-.69,0-1.24.56-1.24,1.24s.56,1.25,1.24,1.25,1.24-.56,1.24-1.25-.56-1.24-1.24-1.24"/>
  <path class="st0" d="M29.65,63.71c0,.66.54,1.19,1.19,1.19s1.19-.54,1.19-1.19-.54-1.19-1.19-1.19-1.19.54-1.19,1.19"/>
  <path class="st0" d="M32.32,67.54c0-.66-.54-1.19-1.19-1.19s-1.19.54-1.19,1.19.54,1.19,1.19,1.19,1.19-.54,1.19-1.19"/>
  <path class="st0" d="M30.88,73.49c0-.66-.54-1.19-1.19-1.19s-1.19.54-1.19,1.19.54,1.19,1.19,1.19,1.19-.54,1.19-1.19"/>
  <path class="st0" d="M29.27,59.87c0,.66.54,1.19,1.19,1.19s1.19-.54,1.19-1.19-.54-1.19-1.19-1.19-1.19.54-1.19,1.19"/>
  <path class="st0" d="M24.89,61.1c-.64,0-1.17.52-1.17,1.17s.52,1.17,1.17,1.17,1.17-.52,1.17-1.17-.52-1.17-1.17-1.17"/>
  <path class="st0" d="M24.13,74.72c-.64,0-1.17.52-1.17,1.17s.52,1.17,1.17,1.17,1.17-.52,1.17-1.17-.52-1.17-1.17-1.17"/>
  <path class="st0" d="M28.73,60.82c-.64,0-1.17.52-1.17,1.17s.52,1.17,1.17,1.17,1.17-.52,1.17-1.17-.52-1.17-1.17-1.17"/>
  <path class="st0" d="M25.01,72.05c0-.64-.52-1.17-1.17-1.17s-1.17.52-1.17,1.17.52,1.17,1.17,1.17,1.17-.52,1.17-1.17"/>
  <path class="st0" d="M24.62,68.22c0-.64-.52-1.17-1.17-1.17s-1.17.52-1.17,1.17.52,1.17,1.17,1.17,1.17-.52,1.17-1.17"/>
  <path class="st0" d="M23.76,78.84l.21-.04s.52-.1.78-.15h0s.12-.02.12-.02c-.12-.04-.24-.07-.37-.07-.29,0-.54.11-.75.28"/>
  <path class="st0" d="M26.12,67.83c0,.64.52,1.17,1.17,1.17s1.17-.52,1.17-1.17-.52-1.17-1.17-1.17-1.17.52-1.17,1.17"/>
  <path class="st0" d="M27.25,57.77c-.04.12-.07.25-.07.38,0,.64.52,1.17,1.17,1.17s1.17-.52,1.17-1.17c0-.18-.04-.34-.11-.49-.74.03-1.46.07-2.16.11"/>
  <path class="st0" d="M30.57,69.66c0-.64-.52-1.17-1.17-1.17s-1.17.52-1.17,1.17.52,1.17,1.17,1.17,1.17-.52,1.17-1.17"/>
  <path class="st0" d="M23.57,58.01c-.08.16-.13.34-.13.53,0,.64.52,1.17,1.17,1.17s1.17-.52,1.17-1.17c0-.25-.08-.47-.21-.66-.69.04-1.35.09-2,.14"/>
  <path class="st0" d="M27.68,72.84c.64,0,1.17-.52,1.17-1.17s-.52-1.17-1.17-1.17-1.17.52-1.17,1.17.52,1.17,1.17,1.17"/>
  <path class="st0" d="M27.96,76.68c.64,0,1.17-.52,1.17-1.17s-.52-1.17-1.17-1.17-1.17.52-1.17,1.17.52,1.17,1.17,1.17"/>
  <path class="st0" d="M25.57,71.11c.64,0,1.17-.52,1.17-1.17s-.52-1.17-1.17-1.17-1.17.52-1.17,1.17.52,1.17,1.17,1.17"/>
  <path class="st0" d="M25.84,64.09c0,.64.52,1.17,1.17,1.17s1.17-.52,1.17-1.17-.52-1.17-1.17-1.17-1.17.52-1.17,1.17"/>
  <path class="st0" d="M25.45,60.26c0,.64.52,1.17,1.17,1.17s1.17-.52,1.17-1.17-.52-1.17-1.17-1.17-1.17.52-1.17,1.17"/>
  <path class="st0" d="M22,64.38c0,.64.52,1.17,1.17,1.17s1.17-.52,1.17-1.17-.52-1.17-1.17-1.17-1.17.52-1.17,1.17"/>
  <path class="st0" d="M29.02,66.99c.64,0,1.17-.52,1.17-1.17s-.52-1.17-1.17-1.17-1.17.52-1.17,1.17.52,1.17,1.17,1.17"/>
  <path class="st0" d="M25.85,74.95c.64,0,1.17-.52,1.17-1.17s-.52-1.17-1.17-1.17-1.17.52-1.17,1.17.52,1.17,1.17,1.17"/>
  <path class="st0" d="M25.28,64.94c-.64,0-1.17.52-1.17,1.17s.52,1.17,1.17,1.17,1.17-.52,1.17-1.17-.52-1.17-1.17-1.17"/>
  <path class="st0" d="M23.26,74.07c0-.63-.52-1.15-1.15-1.15s-1.15.51-1.15,1.15.52,1.15,1.15,1.15,1.15-.52,1.15-1.15"/>
  <path class="st0" d="M21.44,67.64c.63,0,1.15-.52,1.15-1.15s-.51-1.15-1.15-1.15-1.15.51-1.15,1.15.52,1.15,1.15,1.15"/>
  <path class="st0" d="M22.4,76.75c-.63,0-1.15.52-1.15,1.15s.51,1.15,1.15,1.15,1.15-.52,1.15-1.15-.51-1.15-1.15-1.15"/>
  <path class="st0" d="M20.67,78.86c-.52,0-.96.35-1.1.83.09-.02.19-.04.28-.06-.15.03-.15.03,0,0,.11-.02.21-.05.32-.07.23-.05.46-.1.7-.15.14-.03.29-.06.43-.09h0s.04,0,.04,0h-.04s.23-.04.23-.04c-.21-.25-.52-.41-.87-.41"/>
  <path class="st0" d="M22.88,70.33c0-.63-.52-1.15-1.15-1.15s-1.15.51-1.15,1.15.52,1.15,1.15,1.15,1.15-.51,1.15-1.15"/>
  <path class="st0" d="M21.06,61.51c-.63,0-1.15.52-1.15,1.15s.52,1.15,1.15,1.15,1.15-.51,1.15-1.15-.51-1.15-1.15-1.15"/>
  <path class="st0" d="M20,73.49c.63,0,1.15-.52,1.15-1.15s-.51-1.15-1.15-1.15-1.15.52-1.15,1.15.51,1.15,1.15,1.15"/>
  <path class="st0" d="M19.74,58.32c-.07.15-.12.32-.12.5,0,.63.52,1.15,1.15,1.15s1.15-.51,1.15-1.15c0-.25-.08-.48-.22-.67-.68.06-1.33.11-1.96.17"/>
  <path class="st0" d="M21.64,60.54c0,.63.52,1.15,1.15,1.15s1.15-.52,1.15-1.15-.52-1.15-1.15-1.15-1.15.51-1.15,1.15"/>
  <path class="st0" d="M20.29,77.33c.63,0,1.15-.52,1.15-1.15s-.51-1.15-1.15-1.15-1.15.51-1.15,1.15.52,1.15,1.15,1.15"/>
  <path class="st0" d="M17.91,60.93c0,.63.51,1.14,1.14,1.14s1.14-.51,1.14-1.14-.51-1.14-1.14-1.14-1.14.51-1.14,1.14"/>
  <path class="st0" d="M18.2,64.77c0,.63.51,1.14,1.14,1.14s1.14-.51,1.14-1.14-.51-1.14-1.14-1.14-1.14.51-1.14,1.14"/>
  <path class="st0" d="M18.48,68.51c0,.63.51,1.14,1.14,1.14s1.15-.51,1.15-1.14-.51-1.14-1.15-1.14-1.14.51-1.14,1.14"/>
  <path class="st0" d="M18.57,77.14c-.63,0-1.14.51-1.14,1.14s.51,1.14,1.14,1.14,1.14-.51,1.14-1.14-.51-1.14-1.14-1.14"/>
  <path class="st0" d="M16.18,73.85c.62,0,1.13-.51,1.13-1.13s-.51-1.13-1.13-1.13-1.13.51-1.13,1.13.51,1.13,1.13,1.13"/>
  <path class="st0" d="M19.03,70.62c0-.62-.51-1.13-1.13-1.13s-1.13.51-1.13,1.13.5,1.13,1.13,1.13,1.13-.51,1.13-1.13"/>
  <path class="st0" d="M19.41,74.45c0-.62-.51-1.13-1.13-1.13s-1.13.51-1.13,1.13.5,1.13,1.13,1.13,1.13-.51,1.13-1.13"/>
  <path class="st0" d="M16.56,77.69c.62,0,1.13-.51,1.13-1.13s-.51-1.13-1.13-1.13-1.13.5-1.13,1.13.51,1.13,1.13,1.13"/>
  <path class="st0" d="M14.76,68.89c0,.62.51,1.13,1.13,1.13s1.13-.51,1.13-1.13-.51-1.13-1.13-1.13-1.13.51-1.13,1.13"/>
  <path class="st0" d="M16.85,79.17c-.62,0-1.13.51-1.13,1.13l.03.25c.67-.16,1.4-.33,2.19-.5-.12-.5-.56-.87-1.1-.87"/>
  <path class="st0" d="M17.62,65.65c-.62,0-1.13.51-1.13,1.13s.51,1.13,1.13,1.13,1.13-.5,1.13-1.13-.51-1.13-1.13-1.13"/>
  <path class="st0" d="M17.23,61.82c-.62,0-1.13.51-1.13,1.13s.51,1.13,1.13,1.13,1.13-.51,1.13-1.13-.51-1.13-1.13-1.13"/>
  <path class="st0" d="M15.94,58.71c-.07.15-.12.32-.12.5,0,.62.51,1.13,1.13,1.13s1.13-.51,1.13-1.13c0-.27-.1-.51-.25-.7-.67.07-1.29.14-1.88.2"/>
  <path class="st0" d="M14.11,61.21c0,.6.49,1.09,1.09,1.09s1.1-.49,1.1-1.09-.49-1.09-1.1-1.09-1.09.49-1.09,1.09"/>
  <path class="st0" d="M15.54,74.74c0-.6-.49-1.09-1.09-1.09s-1.1.49-1.1,1.09.49,1.1,1.1,1.1,1.09-.49,1.09-1.1"/>
  <path class="st0" d="M14.4,65.05c0,.6.49,1.09,1.09,1.09s1.1-.49,1.1-1.09-.49-1.1-1.1-1.1-1.09.49-1.09,1.1"/>
  <path class="st0" d="M14.73,77.48c-.6,0-1.09.49-1.09,1.09s.49,1.1,1.09,1.1,1.09-.49,1.09-1.1-.49-1.09-1.09-1.09"/>
  <path class="st0" d="M15.14,71c0-.6-.48-1.08-1.08-1.08s-1.08.48-1.08,1.08.48,1.08,1.08,1.08,1.08-.48,1.08-1.08"/>
  <path class="st0" d="M12.07,59.19c-.03.1-.05.19-.05.3,0,.6.48,1.08,1.08,1.08s1.08-.49,1.08-1.08c0-.2-.06-.39-.16-.56-.74.09-1.4.18-1.96.26"/>
  <path class="st0" d="M13.78,66.08c-.6,0-1.08.48-1.08,1.08s.48,1.08,1.08,1.08,1.08-.48,1.08-1.08-.48-1.08-1.08-1.08"/>
  <path class="st0" d="M13.39,62.24c-.6,0-1.08.48-1.08,1.08s.48,1.08,1.08,1.08,1.08-.48,1.08-1.08-.48-1.08-1.08-1.08"/>
  <path class="st0" d="M12.34,74.09c.6,0,1.08-.48,1.08-1.08s-.48-1.08-1.08-1.08-1.08.48-1.08,1.08.48,1.08,1.08,1.08"/>
  <path class="st0" d="M10.97,69.17c0,.6.48,1.08,1.08,1.08s1.08-.48,1.08-1.08-.48-1.08-1.08-1.08-1.08.48-1.08,1.08"/>
  <path class="st0" d="M10.59,65.43c0,.6.48,1.08,1.08,1.08s1.08-.48,1.08-1.08-.48-1.08-1.08-1.08-1.08.48-1.08,1.08"/>
  <path class="st0" d="M13.01,79.6c-.6,0-1.08.48-1.08,1.08,0,.29.11.55.3.74.44-.12,1.05-.27,1.82-.46.02-.09.04-.18.04-.28,0-.6-.48-1.08-1.08-1.08"/>
  <path class="st0" d="M12.72,77.93c.6,0,1.08-.48,1.08-1.08s-.48-1.08-1.08-1.08-1.08.48-1.08,1.08.48,1.08,1.08,1.08"/>
  <path class="st0" d="M11.71,75.12c0-.54-.39-.99-.9-1.09l.17,2.12c.42-.15.73-.56.73-1.04"/>
  <path class="st0" d="M10.27,61.6c0,.61.5,1.11,1.11,1.11s1.11-.5,1.11-1.11-.5-1.11-1.11-1.11-1.11.5-1.11,1.11"/>
  <path class="st0" d="M11.12,77.86l.17,2.15c.46-.13.8-.55.8-1.06,0-.57-.43-1.03-.98-1.09"/>
  <path class="st0" d="M9.65,59.57l.1,1.23c.34-.18.57-.52.57-.93,0-.14-.03-.27-.08-.4-.2.03-.39.06-.59.09"/>
  <path class="st0" d="M11.37,71.28c0-.52-.37-.94-.87-1.03l.16,2.02c.41-.15.7-.53.7-.99"/>
  <path class="st0" d="M10.99,67.45c0-.49-.34-.9-.79-1.02l.16,1.98c.37-.16.63-.53.63-.96"/>
  <path class="st0" d="M9.89,62.59l.16,1.99c.38-.16.65-.54.65-.97,0-.5-.35-.91-.81-1.02"/>
  <path class="st0" d="M39.2,29.16c-.48.12-.96.24-1.44.36.14.05.29.08.45.08.4,0,.75-.17.99-.45"/>
  <path class="st0" d="M36.48,31.71c.35,0,.67-.14.91-.36-.15.21-.23.47-.23.75,0,.74.6,1.34,1.34,1.34s1.34-.6,1.34-1.34-.6-1.34-1.34-1.34c-.35,0-.67.14-.91.36.15-.21.23-.47.23-.75,0-.3-.1-.58-.27-.8-.8.2-1.59.4-2.38.6l-.02.2c0,.74.6,1.34,1.34,1.34"/>
  <path class="st0" d="M33.46,32.49c0,.72.58,1.3,1.3,1.3s1.3-.58,1.3-1.3-.58-1.3-1.3-1.3-1.3.58-1.3,1.3"/>
  <path class="st0" d="M32.64,31.95c.71,0,1.29-.58,1.29-1.29l-.02-.18c-.83.21-1.66.41-2.48.61.18.49.65.85,1.21.85"/>
  <path class="st0" d="M80.43,37.95c-.15.01-.3.03-.45.04-.48.04-.95.09-1.43.13.23.2.53.32.86.32.41,0,.78-.19,1.02-.49"/>
  <path class="st0" d="M79.79,42.28c.74,0,1.34-.6,1.34-1.34s-.6-1.34-1.34-1.34-1.34.6-1.34,1.34.6,1.34,1.34,1.34"/>
  <path class="st0" d="M82.82,38.92c0-.49-.27-.9-.67-1.13-.47.04-.96.09-1.45.13-.29.24-.48.59-.48,1,0,.72.58,1.3,1.3,1.3s1.3-.58,1.3-1.3"/>
  <path class="st0" d="M76.73,38.28c-.24.24-.38.57-.38.93,0,.74.6,1.34,1.34,1.34s1.34-.6,1.34-1.34c0-.45-.22-.84-.56-1.08-.59.05-1.16.1-1.73.15"/>
  <path class="st0" d="M83.63,41.94c.71,0,1.29-.58,1.29-1.29s-.58-1.29-1.29-1.29-1.29.58-1.29,1.29.58,1.29,1.29,1.29"/>
  <path class="st0" d="M83.25,38.1c.41,0,.78-.2,1.01-.5-.6.06-1.21.12-1.86.18.23.2.52.33.85.33"/>
  <path class="st0" d="M85.65,43.65c.7,0,1.27-.57,1.27-1.27s-.57-1.27-1.27-1.27-1.27.57-1.27,1.27.57,1.27,1.27,1.27"/>
  <path class="st0" d="M85.97,37.43c-.38.04-.73.07-1.04.1-.12.01-.26.02-.38.04-.28.23-.46.58-.46.97,0,.7.57,1.27,1.27,1.27s1.27-.57,1.27-1.27c0-.48-.27-.89-.66-1.11"/>
  <path class="st0" d="M87.09,37.67c.38,0,.72-.18.95-.45-.61.07-1.19.13-1.71.18.21.17.47.27.76.27"/>
  <path class="st0" d="M88.61,40.27c0-.68-.55-1.23-1.23-1.23s-1.23.55-1.23,1.23.55,1.23,1.23,1.23,1.23-.55,1.23-1.23"/>
  <path class="st0" d="M89.54,43.22c.67,0,1.22-.55,1.22-1.22s-.55-1.22-1.22-1.22-1.22.55-1.22,1.22.55,1.22,1.22,1.22"/>
  <path class="st0" d="M89.45,37.06l-.25-.03c-.14,0-.28.04-.42.1-.42.19-.8.63-.8,1.12,0,.67.55,1.22,1.22,1.22s1.22-.55,1.22-1.22c0-.59-.42-1.08-.97-1.2"/>
  <path class="st0" d="M90.92,37.37c.44,0,.82-.23,1.03-.58-.64.07-1.28.14-1.91.2.22.23.53.37.87.37"/>
  <path class="st0" d="M93.19,36.65l-.25-.03c-.18,0-.35.04-.5.11-.44.19-.74.63-.74,1.14,0,.69.56,1.24,1.24,1.24s1.24-.56,1.24-1.24c0-.6-.43-1.1-.99-1.22"/>
  <path class="st0" d="M92.45,39.98c0-.69-.56-1.24-1.24-1.24s-1.24.56-1.24,1.24.56,1.24,1.24,1.24,1.24-.56,1.24-1.24"/>
  <path class="st0" d="M93.32,42.9c.66,0,1.19-.54,1.19-1.19s-.54-1.19-1.19-1.19-1.19.54-1.19,1.19.54,1.19,1.19,1.19"/>
  <path class="st0" d="M95.78,36.36c-.64.07-1.27.14-1.89.21.22.23.53.38.87.38.44,0,.82-.24,1.03-.59"/>
  <path class="st0" d="M101.78,37.2c0-.64-.52-1.17-1.17-1.17s-1.17.52-1.17,1.17.52,1.17,1.17,1.17,1.17-.52,1.17-1.17"/>
  <path class="st0" d="M96.22,39.6c0-.64-.52-1.17-1.17-1.17s-1.17.52-1.17,1.17.52,1.17,1.17,1.17,1.17-.52,1.17-1.17"/>
  <path class="st0" d="M97.94,37.58c0-.64-.52-1.17-1.17-1.17s-1.17.52-1.17,1.17.52,1.17,1.17,1.17,1.17-.52,1.17-1.17"/>
  <path class="st0" d="M98.88,40.48c.64,0,1.17-.52,1.17-1.17s-.52-1.17-1.17-1.17-1.17.52-1.17,1.17.52,1.17,1.17,1.17"/>
  <path class="st0" d="M99.68,35.91c-.69.08-1.36.16-2.03.24.21.3.56.49.95.49.49,0,.91-.3,1.08-.73"/>
  <path class="st0" d="M103.45,35.45c-.72.09-1.43.18-2.13.26.19.37.57.62,1.02.62.54,0,.99-.38,1.11-.88"/>
  <path class="st0" d="M106.16,35.93c.56,0,1.03-.41,1.11-.95-.72.09-1.44.18-2.15.27.17.4.57.68,1.04.68"/>
  <path class="st0" d="M30.92,34.05c.7,0,1.27-.57,1.27-1.27s-.57-1.27-1.27-1.27-1.27.57-1.27,1.27.57,1.27,1.27,1.27"/>
  <path class="st0" d="M29.96,31.46c-.67.16-1.34.33-1.99.49.22.2.51.33.83.33.53,0,.98-.34,1.16-.82"/>
  <path class="st0" d="M27.03,34.38c.67,0,1.22-.55,1.22-1.22,0-.49-.29-.91-.71-1.1-.5.12-.99.24-1.47.36-.16.21-.26.46-.26.75,0,.67.55,1.22,1.22,1.22"/>
  <path class="st0" d="M25.36,36.41c.69,0,1.24-.56,1.24-1.24s-.56-1.25-1.24-1.25-1.24.56-1.24,1.25.56,1.24,1.24,1.24"/>
  <path class="st0" d="M23.25,34.64c.66,0,1.19-.54,1.19-1.19,0-.22-.06-.42-.17-.6-.76.18-1.5.36-2.21.53v.06c0,.66.53,1.19,1.19,1.19"/>
  <path class="st0" d="M16.59,34.68c-.61.14-1.17.28-1.68.4.19.13.42.21.66.21.44,0,.82-.25,1.02-.61"/>
  <path class="st0" d="M19.41,34.9c.64,0,1.17-.52,1.17-1.17-.77.18-1.51.36-2.21.52.19.38.58.64,1.04.64"/>
  <path class="st0" d="M21.52,36.72c.64,0,1.17-.52,1.17-1.17s-.52-1.17-1.17-1.17-1.17.52-1.17,1.17.52,1.17,1.17,1.17"/>
  <path class="st0" d="M17.68,37.01c.64,0,1.17-.52,1.17-1.17s-.52-1.17-1.17-1.17-1.17.52-1.17,1.17.52,1.17,1.17,1.17"/>
  <path class="st0" d="M13.85,37.37c.63,0,1.15-.52,1.15-1.15,0-.45-.26-.83-.63-1.02-.54.13-1.02.24-1.43.33-.14.19-.23.43-.23.69,0,.63.51,1.15,1.15,1.15"/>
  <path class="st0" d="M41.95,39.67c26.04-.71,62.3-10.02,62.3-10.02l13.45-23.04h0l-2.05-4.01s-27.11,10.7-44.04,16.9c-1.88.69-3.64,1.32-5.22,1.88l-.25.09c-.18.06-.35.12-.53.18-.76.27-1.47.51-2.13.74-.17.06-.35.12-.53.18l.02.08h-.12s-.13,0-.13,0c-.91.3-1.9.61-2.96.93-.27.08-.55.17-.83.25-.7.21-1.43.42-2.18.64.09.01.17.03.26.03.16,0,.3-.03.45-.07l-.02.16c0,.17.03.32.08.47l-.22-.02c-.18,0-.36.04-.52.09l.02-.21c0-.16-.03-.3-.07-.44-.93.27-1.9.54-2.9.82l.09.25c-.14-.05-.29-.08-.45-.08-.22,0-.43.05-.61.14v-.04c-1.72.48-3.53.97-5.38,1.46h.13c.23.01.45-.05.64-.14-.04.14-.07.28-.07.43,0,.23.06.45.15.64-.14-.04-.28-.07-.43-.07-.24,0-.47.07-.67.17.05-.14.08-.29.08-.45,0-.18-.04-.35-.1-.51-.9.24-1.81.48-2.72.72.04.26.15.49.31.69-.21-.13-.46-.21-.73-.21-.25,0-.49.07-.69.19.05-.13.07-.26.08-.4-1.41.36-2.83.73-4.24,1.09-.18.23-.29.52-.29.84,0,.77.63,1.4,1.4,1.4.28,0,.54-.09.76-.23-.1.2-.17.41-.17.65,0,.26.08.51.2.72-.16-.06-.33-.1-.51-.1-.72,0-1.31.55-1.38,1.26-.38.1-.76.19-1.14.29-.11-.63-.66-1.11-1.31-1.11-.74,0-1.34.6-1.34,1.34,0,.15.03.29.07.42-.46.11-.92.23-1.38.34.06-.15.09-.31.09-.48,0-.71-.58-1.29-1.29-1.29s-1.29.58-1.29,1.29c0,.39.18.73.45.97l-.23.06c-.19-.12-.41-.19-.66-.19-.45,0-.85.24-1.07.59-.23.05-.46.11-.69.16.56-.12.98-.61.98-1.21,0-.68-.55-1.23-1.23-1.23s-1.23.55-1.23,1.23.55,1.23,1.23,1.23l.25-.03c-.33.08-.66.15-1,.23-.21-.38-.61-.64-1.07-.64-.65,0-1.18.52-1.22,1.16-.43.1-.86.19-1.29.29-.08-.61-.6-1.09-1.23-1.09-.69,0-1.24.56-1.24,1.24,0,.13.03.25.06.37-.52.11-1.04.22-1.56.33.05-.13.07-.26.07-.4,0-.65-.52-1.17-1.17-1.17s-1.17.52-1.17,1.17c0,.31.12.59.32.8-.27.05-.54.11-.81.16l-.17-.02c-.22,0-.42.06-.6.17-.21.04-.41.08-.62.12.23-.21.37-.51.37-.85,0-.64-.52-1.17-1.17-1.17s-1.17.52-1.17,1.17c0,.49.31.91.74,1.08-.17.03-.34.07-.51.1-.21-.2-.48-.32-.79-.32-.46,0-.85.27-1.03.65-.33.06-.66.12-.98.18l-.06-.27c.62-.02,1.12-.52,1.12-1.15s-.52-1.15-1.15-1.15c-.18,0-.34.04-.49.12l-.31-1.29h0s0,0,0,0l-1.18,6.29.56,2.15h0,0l-1.89.26-1.42.73h0,0s0,0,0,0l-2.52,9.49c49.08-2.69,73,4.95,73.1,4.98-1.2-.16-2.39-.31-3.57-.45-1.89-.23-3.76-.43-5.59-.61-.09.01-.18.03-.26.06v-.08c-3.35-.33-6.6-.59-9.74-.79l-.23.11.03-.12c-.95-.06-1.9-.11-2.83-.16.03.2.1.39.2.56-.15-.06-.32-.09-.5-.09-.32,0-.62.11-.86.29.1-.2.17-.42.17-.66v-.15c-.96-.05-1.89-.09-2.82-.12-.02.09-.03.18-.03.27,0,.3.09.58.25.81-.17-.07-.36-.12-.56-.12-.3,0-.58.1-.81.26.08-.17.12-.37.12-.57,0-.25-.07-.49-.19-.7-1.46-.05-2.89-.09-4.29-.12l.04.04-.07-.04c-.49,0-.98-.02-1.46-.02l-.19.15.09-.15c-.81-.01-1.61-.02-2.39-.02.22.45.67.76,1.2.76.35,0,.67-.14.91-.36-.15.21-.23.47-.23.75,0,.74.6,1.34,1.34,1.34s1.34-.6,1.34-1.34c0-.35-.14-.67-.37-.91.24.18.53.3.85.3.25,0,.49-.07.69-.19-.06.16-.1.34-.1.52,0,.32.11.62.3.86-.18-.09-.39-.14-.6-.14-.77,0-1.4.63-1.4,1.4,0,.31.11.6.28.83-.18-.1-.39-.15-.61-.15-.74,0-1.34.6-1.34,1.34s.6,1.34,1.34,1.34,1.34-.6,1.34-1.34c0-.29-.1-.56-.26-.78.2.1.41.17.65.17.31,0,.6-.11.83-.28-.09.19-.14.39-.14.61,0,.26.08.51.2.72-.16-.06-.33-.1-.51-.1-.77,0-1.4.63-1.4,1.4s.63,1.4,1.4,1.4c.28,0,.54-.08.76-.23-.1.2-.16.41-.16.65,0,.26.08.51.2.72-.16-.06-.33-.1-.51-.1-.77,0-1.4.63-1.4,1.4s.63,1.4,1.4,1.4c.31,0,.6-.11.83-.28-.09.19-.14.39-.14.61,0,.28.09.53.23.75l-.13.03c-.13-.04-.26-.07-.4-.07-.39,0-.74.16-1,.42h0c.15-.21.23-.47.23-.75,0-.74-.6-1.34-1.34-1.34s-1.34.6-1.34,1.34c0,.53.31.98.76,1.2l-.14.04c-.25-.28-.6-.46-1-.46-.66,0-1.21.48-1.31,1.11l-1.25.36c-.08-.64-.61-1.14-1.27-1.14-.71,0-1.29.58-1.29,1.29,0,.21.06.41.15.58.04-.01-1.13.35-1.72.54h0c.16-.21.25-.46.25-.74,0-.68-.55-1.23-1.23-1.23s-1.23.55-1.23,1.23c0,.56.38,1.03.89,1.18-.15.05-.4.13-.38.13-.22-.31-.59-.52-1-.52-.68,0-1.23.55-1.23,1.23v.06s-1.37.5-1.37.5l.02-.17c0-.69-.56-1.24-1.25-1.24s-1.24.56-1.24,1.24c0,.37.17.71.43.94l-.24.09c-.19-.13-.42-.21-.67-.21-.57,0-1.04.4-1.16.93l-1.51.63c-.01-.63-.53-1.14-1.17-1.14s-1.17.52-1.17,1.17c0,.33.14.63.36.84.1-.05-.21.1-.22.1,7.46-1.38,16.97-2.71,26.04-2.71,18.94,0,42.27,5.79,42.27,5.79l9.52-15.49-3.85-3.57,6.18-3.33,4.76-24.64c-.4.05-.8.1-1.2.15.03.15.1.29.19.41l-.52.29c-.11-.03-.22-.06-.34-.06-.53,0-.97.37-1.09.86l-1.61.9.03-.25c0-.63-.52-1.15-1.15-1.15s-1.15.52-1.15,1.15c0,.5.32.92.77,1.08l-.44.24c-.21-.28-.54-.46-.91-.46-.63,0-1.15.52-1.15,1.15,0,.15.03.29.08.42l-3.35,1.87c-.1-.55-.57-.96-1.15-.96-.64,0-1.17.52-1.17,1.17,0,.35.15.65.39.87l-.31.17c-.18-.12-.4-.19-.64-.19-.64,0-1.17.52-1.17,1.17v.03s-.43.24-.43.24l-1,.02c-.05-.64-.58-1.15-1.24-1.15s-1.22.54-1.24,1.2l-1.4.03c-.14-.53-.62-.93-1.19-.93s-1.08.42-1.2.97l-1.51.03c-.22-.4-.64-.67-1.12-.67s-.94.29-1.15.71h-.69c.58-.12,1.02-.63,1.02-1.25,0-.72-.58-1.3-1.3-1.3s-1.3.58-1.3,1.3c0,.64.46,1.17,1.07,1.27h-.46c-.25-.3-.62-.5-1.04-.5-.35,0-.67.14-.91.36.15-.21.23-.47.23-.75,0-.74-.6-1.34-1.34-1.34s-1.34.6-1.34,1.34c0,.39.17.73.43.97h-.1c-.23-.16-.51-.26-.81-.26-.28,0-.54.09-.76.23.1-.2.16-.41.16-.65,0-.26-.08-.51-.2-.72.16.06.33.1.51.1.77,0,1.4-.63,1.4-1.4s-.63-1.4-1.4-1.4c-.31,0-.6.11-.83.28.09-.19.14-.39.14-.61,0-.32-.11-.62-.3-.86.18.09.38.14.6.14.48,0,.89-.24,1.15-.6-8.84.76-15.82,1.15-21.11,1.35h-.14c-.37.02-.74.03-1.1.05h-.11c-1.11.04-2.17.07-3.18.09-1.89.04-3.62.04-5.2.02-2.68-.03-3.93-.12-3.93-.12h0ZM62.85,25.85c.15,0,.29-.03.42-.06l-.02.17c0,.18.03.35.09.51h-.11c-.19-.01-.36.03-.53.08.02-.1.03-.2.03-.3,0-.14-.03-.28-.06-.42l.17.02ZM60.84,24.03c.15,0,.29-.03.43-.06-.02.09-.03.18-.03.27,0,.15.02.28.06.42l-.17-.02c-.16,0-.32.03-.46.08v-.14c.01-.2-.03-.39-.09-.57.09.01.18.03.27.03M59.06,26.18c.16,0,.32-.03.46-.08v.14c-.01.2.03.38.09.56l-.17-.02c-.2,0-.38.04-.55.1l.02-.26c0-.17-.03-.32-.08-.47l.23.02ZM57.3,28.4c.2,0,.37-.05.54-.12v.12s0,.07,0,.07c-.25.08-.5.15-.75.23v-.05c0-.09,0-.18-.02-.27l.24.03ZM55.29,26.42c.15,0,.29-.03.43-.07-.02.09-.03.19-.03.28,0,.17.03.35.09.52l-.2-.02c-.26,0-.5.07-.71.18.04-.13.06-.26.06-.4,0-.21-.05-.41-.13-.59.15.05.31.09.48.09M53.47,28.39c.24,0,.47-.06.67-.17-.04.14-.07.28-.07.43,0,.26.07.5.18.71-.13-.04-.26-.06-.4-.06-.27,0-.51.08-.73.2.05-.15.08-.3.08-.46,0-.27-.08-.51-.2-.73.15.05.3.08.46.08M51.25,30.42h0s.02,0,.02,0h-.02ZM51.45,26.66c.22,0,.43-.05.61-.14-.04.13-.06.26-.06.4,0,.27.08.51.2.73-.15-.05-.3-.08-.46-.08-.28,0-.54.08-.76.22.05-.15.09-.31.09-.48,0-.29-.09-.56-.24-.79.19.09.4.14.62.14M49.62,28.75c.27,0,.53-.08.75-.21-.06.15-.09.32-.09.49,0,.27.08.53.21.75-.15-.05-.31-.09-.48-.09-.3,0-.57.09-.81.25.09-.19.15-.4.15-.62s-.06-.45-.15-.64c.14.04.28.07.43.07M47.9,30.77c.3,0,.58-.09.81-.25-.09.19-.14.4-.14.62v.04c-.32.09-.64.18-.97.27v-.02c0-.28-.08-.55-.23-.77.17.07.35.1.53.1M45.88,29.02c.24,0,.45-.06.65-.16-.05.15-.08.3-.08.47,0,.29.09.56.24.79-.16-.06-.33-.1-.52-.1-.3,0-.57.09-.8.25.07-.17.11-.36.11-.55,0-.34-.12-.65-.33-.89.21.13.46.21.73.21M44.06,31.13c.3,0,.57-.09.8-.25-.07.17-.11.36-.11.55,0,.27.08.52.21.74l-.08.02c-.14-.05-.28-.08-.44-.08-.3,0-.58.1-.81.26.08-.17.12-.36.12-.56,0-.3-.09-.57-.25-.8.17.07.36.12.56.12M57.22,59.02c.27,0,.53-.08.75-.21-.06.15-.09.32-.09.49,0,.29.09.57.24.8-.19-.09-.39-.14-.61-.14-.23,0-.45.06-.64.15.04-.14.07-.28.07-.43,0-.28-.08-.53-.22-.75.15.06.32.09.5.09M53.38,59.28c.31,0,.6-.1.84-.28-.11.2-.18.43-.18.68s.07.47.18.68c-.14-.05-.29-.08-.45-.08-.3,0-.58.1-.81.26.08-.17.12-.36.12-.56,0-.3-.09-.57-.25-.8.17.07.36.12.56.12M49.08,60.95c.09-.18.14-.38.14-.6,0-.32-.11-.6-.29-.84.19.09.39.15.61.15.3,0,.58-.1.81-.26-.08.17-.12.37-.12.57,0,.3.1.58.26.81-.17-.08-.37-.12-.57-.12-.32,0-.61.11-.85.29M49.4,63.39c.16.06.34.1.52.1.25,0,.48-.07.69-.19-.06.15-.09.32-.09.5,0,.3.09.58.25.81-.17-.07-.36-.11-.56-.11-.29,0-.55.09-.77.23.1-.19.16-.4.16-.64,0-.26-.07-.49-.2-.7M50.6,68.24c-.32,0-.61.11-.85.29.09-.18.14-.38.14-.6,0-.26-.07-.49-.2-.7.16.06.34.1.52.1.3,0,.58-.1.81-.26-.08.17-.12.37-.12.57,0,.25.07.48.18.69-.15-.06-.32-.09-.49-.09M51.25,62.57c.06-.15.09-.32.09-.49,0-.3-.1-.58-.26-.81.17.08.37.12.57.12.3,0,.58-.1.81-.26-.08.17-.12.36-.12.57,0,.34.13.65.33.89-.21-.13-.46-.21-.73-.21-.25,0-.49.07-.69.19M51.38,65.11c.17.07.36.12.56.12.3,0,.57-.09.8-.25-.07.17-.11.36-.11.55,0,.3.09.57.25.8-.17-.07-.36-.11-.55-.11-.3,0-.58.1-.81.26.08-.17.12-.36.12-.56,0-.3-.09-.57-.25-.8M53.03,69.55l-1.03.24v-.13c.01-.25-.05-.48-.17-.68.15.06.32.09.49.09.3,0,.57-.09.8-.25-.07.17-.11.36-.11.55l.02.18ZM53.04,62.91c.21.13.46.21.73.21.24,0,.45-.06.65-.16-.05.15-.08.3-.08.47,0,.29.09.56.24.79-.16-.06-.33-.1-.52-.1-.3,0-.57.09-.8.25.07-.17.11-.36.11-.55,0-.34-.13-.65-.33-.89M54.44,67.95c-.3,0-.57.09-.8.25.07-.17.11-.36.11-.55,0-.3-.09-.57-.25-.8.17.07.36.11.55.11.28,0,.54-.09.76-.23-.06.16-.1.34-.1.53,0,.29.09.56.24.79-.16-.06-.33-.1-.52-.1M55.02,61.04c.15.05.31.09.47.09.23,0,.45-.06.64-.15-.04.14-.07.28-.07.43,0,.23.06.45.15.64-.14-.04-.28-.07-.43-.07-.24,0-.47.07-.67.17.05-.14.08-.29.08-.45,0-.24-.06-.46-.17-.65M55.24,64.76c.17.07.35.1.53.1.3,0,.58-.09.81-.25-.09.19-.15.4-.15.62s.06.45.15.64c-.14-.04-.28-.07-.43-.07-.29,0-.56.09-.79.24.06-.16.1-.33.1-.51,0-.28-.09-.55-.23-.77M55.68,68.97l.11-.02c-.04-.12-.09-.24-.16-.35.17.07.35.1.53.1.23,0,.45-.06.64-.15l-.05.2.14-.03c-.41.08-.81.16-1.21.25M57.07,62.78c.14.04.28.07.43.07.27,0,.53-.08.75-.21-.06.15-.09.32-.09.49,0,.27.08.53.21.75-.15-.05-.31-.09-.48-.09-.3,0-.58.09-.81.25.09-.19.14-.4.14-.62s-.06-.45-.15-.64M58.17,67.53c-.23,0-.45.06-.64.15.04-.14.07-.28.07-.43,0-.23-.06-.45-.16-.64.14.04.28.07.43.07.27,0,.53-.08.75-.21-.06.15-.09.32-.09.49,0,.24.06.47.17.67-.17-.07-.35-.11-.54-.11M58.72,60.62c.19.09.4.14.62.14s.43-.05.61-.14c-.04.13-.06.26-.06.4,0,.27.08.51.2.73-.15-.05-.3-.08-.46-.08-.28,0-.54.08-.76.22.05-.15.09-.31.09-.48,0-.29-.09-.56-.23-.79M60.01,65.51c-.28,0-.54.08-.76.22.05-.15.09-.31.09-.48,0-.27-.08-.52-.21-.74.15.06.32.09.49.09.27,0,.51-.08.73-.2-.05.15-.08.3-.08.46,0,.27.08.51.2.73-.15-.05-.3-.08-.46-.08M60.6,58.57c.15.05.3.08.46.08.26,0,.49-.07.7-.19-.07.17-.11.35-.11.55,0,.22.05.44.14.63-.14-.05-.29-.08-.45-.08-.22,0-.43.05-.61.14.04-.13.06-.26.06-.4,0-.27-.08-.51-.2-.73M60.88,62.4c.15.05.3.08.46.08.24,0,.47-.06.67-.17-.04.14-.07.28-.07.43,0,.26.07.5.18.71-.13-.04-.26-.06-.4-.06-.27,0-.51.08-.73.2.05-.15.08-.3.08-.46,0-.27-.08-.51-.2-.73M62.02,67.23c-.22,0-.43.05-.61.14.04-.13.06-.26.06-.4,0-.27-.08-.51-.2-.73.15.05.3.08.46.08.2,0,.38-.04.55-.11-.03.12-.05.24-.05.37,0,.26.07.5.18.71-.13-.04-.26-.06-.4-.06M62.69,60.44c.15.05.31.09.48.09.15,0,.29-.03.43-.07-.02.09-.03.19-.03.28,0,.17.03.35.09.52l-.2-.02c-.26,0-.5.07-.71.18.04-.13.06-.26.06-.4,0-.21-.05-.41-.12-.59M64,65.1l-.26-.03c-.21,0-.41.04-.59.12.03-.11.04-.22.04-.33,0-.24-.06-.46-.17-.67.14.04.28.07.43.07.22,0,.43-.05.61-.13-.07.19-.12.39-.12.6,0,.13.02.25.05.37M64.61,58.56c.09.02.19.03.29.03.16,0,.31-.03.45-.07l-.02.16c0,.17.03.32.08.47l-.22-.02c-.18,0-.36.04-.52.09l.02-.21c0-.16-.03-.31-.08-.45M64.94,62.48l.24.03c.19,0,.37-.05.54-.12v.12c-.01.23.04.44.12.64-.09-.02-.18-.03-.28-.03-.25,0-.49.06-.7.16.06-.17.1-.34.1-.53,0-.09-.01-.18-.03-.27M65.86,66.88c-.24,0-.46.06-.67.15.04-.14.07-.29.07-.44,0-.1-.01-.19-.03-.28.11.02.22.04.34.04.15,0,.3-.03.44-.07v.07c0,.2.03.39.1.56l-.25-.03ZM66.72,60.26l.23.02c.16,0,.32-.03.46-.08v.14c-.01.2.03.38.09.56l-.17-.02c-.2,0-.38.04-.56.1l.03-.26c0-.17-.03-.32-.08-.47M67.62,64.73c-.15,0-.3.03-.44.07v-.07c0-.23-.04-.44-.12-.63.09.02.18.03.28.03.16,0,.32-.03.46-.08v.14c-.01.2.03.39.09.57-.09-.01-.18-.03-.27-.03M68.84,61.95l.17.02c.18,0,.36-.04.53-.1-.02.1-.03.2-.03.3,0,.15.03.28.06.42l-.17-.02c-.16,0-.32.03-.46.08v-.14c.01-.2-.03-.38-.09-.56M69.68,66.41c-.16,0-.32.03-.46.08v-.14c.01-.2-.03-.39-.09-.57.09.01.18.03.27.03.15,0,.28-.03.42-.06l-.02.17c0,.18.04.35.09.52l-.2-.02ZM70.56,59.94l.17.02c.15,0,.29-.03.42-.06l-.02.17c0,.18.04.34.09.5h-.1c-.19-.01-.36.03-.53.09.02-.1.03-.2.03-.3,0-.15-.03-.28-.06-.42M71.41,64.3c-.15,0-.28.03-.42.06l.02-.17c0-.14-.03-.28-.06-.42l.17.02c.11,0,.22-.01.32-.03v.14c-.01.14,0,.28.04.41h-.07ZM73.85,41.02c.32,0,.61-.11.85-.29-.09.18-.14.38-.14.6,0,.26.07.49.2.7-.16-.06-.34-.1-.52-.1-.3,0-.58.1-.81.25.08-.17.12-.36.12-.57,0-.25-.07-.48-.18-.69.15.06.32.09.49.09M73.05,44.1h-.1c-.14-.04-.28-.08-.44-.08-.18,0-.34.04-.5.1h-.25c.04-.12.07-.26.07-.4,0-.3-.09-.57-.25-.8.17.07.36.11.55.11.3,0,.58-.1.81-.26-.08.17-.12.36-.12.56,0,.28.09.54.23.76M71.84,39.2c.27,0,.53-.08.75-.22-.09.19-.15.4-.15.62,0,.25.07.48.18.68-.15-.06-.32-.09-.49-.09-.3,0-.57.09-.8.25.07-.17.11-.36.11-.55,0-.34-.13-.65-.33-.89.21.13.46.21.73.21M70.02,41.31c.3,0,.57-.09.8-.25-.07.17-.11.36-.11.55,0,.3.09.57.25.8-.17-.07-.36-.11-.55-.11-.28,0-.54.09-.76.23.06-.16.1-.34.1-.53,0-.29-.09-.56-.24-.79.16.06.33.1.52.1M69.06,44.18l-1.07.02.02-.18c0-.23-.06-.45-.15-.64.14.04.28.07.43.07.29,0,.56-.09.79-.24-.06.16-.1.33-.1.51,0,.16.03.31.08.46M68,39.61c.24,0,.47-.07.67-.17-.05.14-.08.29-.08.45,0,.28.09.55.23.77-.17-.07-.35-.11-.53-.11-.23,0-.45.06-.64.16.04-.14.07-.28.07-.43,0-.28-.08-.53-.22-.75.16.06.32.09.5.09M66.27,41.72c.23,0,.45-.06.64-.15-.04.14-.07.28-.07.43,0,.23.06.45.15.64-.14-.04-.28-.07-.43-.07-.27,0-.53.08-.75.21.06-.15.09-.32.09-.49,0-.24-.06-.47-.17-.67.17.07.35.11.54.11M65.14,44.25l-.96.02c-.02-.22-.09-.42-.19-.6.15.05.3.08.46.08.28,0,.54-.08.76-.22-.05.15-.09.31-.09.48l.02.24ZM64.16,39.91c.3,0,.58-.09.81-.24-.09.18-.14.39-.14.6,0,.24.06.46.16.66-.17-.07-.35-.11-.55-.11-.22,0-.43.05-.61.14.04-.13.06-.26.06-.4,0-.27-.08-.51-.2-.73.15.05.3.08.46.08M62.43,42.02c.22,0,.43-.05.61-.14-.04.13-.06.26-.06.4,0,.27.08.51.2.73-.15-.05-.3-.08-.46-.08-.2,0-.38.04-.55.11.03-.12.05-.24.05-.37,0-.26-.07-.49-.18-.71.13.04.26.06.4.06M61.26,44.32h-.78s-.03-.17-.03-.17l.26.03c.21,0,.41-.04.59-.12-.02.09-.03.17-.04.26M60.14,40.33l.18.02c.26,0,.5-.07.71-.18-.04.13-.06.26-.06.4,0,.24.06.47.17.67-.14-.04-.28-.07-.43-.07-.21,0-.41.04-.59.12.05-.16.09-.33.09-.51,0-.15-.03-.3-.07-.44M58.59,42.37c.24,0,.46-.06.67-.15-.04.14-.07.29-.07.44,0,.1.01.19.03.28-.11-.02-.22-.04-.34-.04-.15,0-.3.03-.44.07v-.07c0-.2-.03-.39-.1-.56l.25.03ZM56.49,40.73c.17,0,.34-.04.5-.09v.11c-.01.2.03.38.1.56l-.25-.03c-.16,0-.32.03-.46.08v-.14c.01-.18-.02-.35-.08-.51l.2.02ZM54.77,42.84c.16,0,.32-.03.46-.08v.14c-.01.2.03.39.09.57-.09-.02-.18-.03-.27-.03-.15,0-.28.03-.42.06l.02-.17c0-.18-.04-.35-.09-.52l.2.02ZM52.66,41.12c.18,0,.35-.04.52-.09l-.02.2c0,.18.04.35.09.52l-.2-.02c-.15,0-.29.03-.43.07.01-.09.03-.18.03-.27,0-.14-.02-.28-.05-.41h.07ZM42.04,29.39c.25,0,.48-.07.69-.19-.06.15-.09.32-.09.5,0,.3.09.58.25.81-.17-.07-.36-.12-.56-.12-.29,0-.55.09-.77.23.1-.19.16-.4.16-.64,0-.26-.07-.49-.2-.7.16.06.34.1.52.1"/>
  <path class="st0" d="M181.25,38c-1.04-4.18-5.57-5.34-9.45-5.34-2.73,0-8.12.64-8.12,4.35,0,2.84,3.54,3.54,7.42,4.29l8.29,1.62c8.47,1.68,11.77,5.62,11.77,11.89,0,10.21-10.32,13.34-18.78,13.34s-17.86-2.55-19.48-13.8l9.39-.98c.75,5.51,5.74,7.02,10.55,7.02,3.19,0,8.7-.93,8.7-5.1,0-3.02-3.6-3.77-6.32-4.29l-7.19-1.33c-7.07-1.34-13.57-3.48-13.57-12.12,0-9.39,9.8-12.41,17.57-12.41s16.17,2.55,18.38,11.94l-9.16.93Z"/>
  <path class="st0" d="M271.02,55.03l-2.67-6.59-9.02-22.26h-10.26l-16.64,40.94h9.92l3.94-10.78,2.72-7.36,5.16-14.56,4.99,14.56.58,1.64c-5.57,1.35-9.86,2.32-9.86,2.32l-.96,3.24.51,1.11c3.99-.12,8.19-.52,12.32-1,0,0,3.01-.36,4.12-.5,0,0-2.46,1.36-3.4,2.52l3.13,8.82h10.32l-4.9-12.09Z"/>
  <polygon class="st0" points="219 33.83 219 67.11 209.73 67.11 209.73 33.94 195.75 33.94 195.75 26.17 233.04 26.17 233.04 33.83 219 33.83"/>
  <path class="st0" d="M304.54,26.17c5.1,0,10.9.23,14.2,4.46,1.57,1.97,2.26,4.47,2.26,6.96,0,4.64-2.32,8.18-6.44,10.15,3.6,1.62,4.12,4.41,4.64,7.48l.46,2.84c.41,2.61,1.1,6.61,2.73,9.05h-9.8c-1.04-2.96-1.33-3.94-2.09-8.81l-.23-1.51c-.7-4.35-3.3-4.93-7.25-4.93h-9.57v15.25h-9.28V26.17h20.35ZM293.46,44.44h10.21c3.94,0,8.12-.12,8.12-5.16,0-4.76-2.96-5.57-7.02-5.57h-11.31v10.73Z"/>
  <polygon class="st0" points="129.61 59.67 143.7 59.67 143.7 64.1 129.61 64.1 129.61 67.11 126 67.11 126 56.66 129.61 56.66 129.61 59.67"/>
  <polygon class="st0" points="143.7 45.29 136.33 45.29 136.33 48.2 143.7 48.2 143.7 52.63 126 52.63 126 48.2 132.77 48.2 132.77 45.29 126 45.29 126 40.9 143.7 40.9 143.7 45.29"/>
  <polygon class="st0" points="143.7 35.7 126 35.7 126 26.17 129.59 26.17 129.59 31.26 132.77 31.26 132.77 26.78 136.28 26.78 136.28 31.26 140.06 31.26 140.06 26.17 143.7 26.17 143.7 35.7"/>
</svg>